<svg width="184" height="29" viewBox="0 0 184 29" fill="none" xmlns="http://www.w3.org/2000/svg">
<path fill-rule="evenodd" clip-rule="evenodd" d="M25.6725 3.05262H3.08771V25.3808H25.6725V3.05262ZM3.08771 0H0V3.05262V25.3808V28.4334H3.08771H25.6725H28.7602V25.3808V3.05262V0H25.6725H3.08771ZM20.9013 8.05166L20.3878 10.106C20.1744 10.9661 19.3887 11.5678 18.4886 11.5678H10.3502L10.8637 9.51038C11.0772 8.65338 11.8597 8.05166 12.7599 8.05166H20.9013ZM9.64595 14.5727C9.85874 13.7043 10.639 13.0915 11.5364 13.0915H17.2263L16.7143 15.1732C16.5015 16.0447 15.7182 16.6575 14.8208 16.6575H12.8101L12.1378 19.4568C11.9219 20.3283 11.1386 20.9442 10.2381 20.9442H8.09782L9.64595 14.5727Z" fill="white"/>
<path d="M41.4295 17.5766V24.1852H37.2578V5.55595H50.2843V9.41778H41.4295V13.8779H49.5845V17.5766H41.4295Z" fill="white"/>
<path d="M58.4435 9.9617C59.5021 9.9617 60.48 10.1521 61.3771 10.5328C62.2922 10.9136 63.0817 11.4303 63.7456 12.083C64.4095 12.7357 64.9298 13.5062 65.3066 14.3946C65.6834 15.283 65.8718 16.2349 65.8718 17.2502C65.8718 18.2655 65.6834 19.2174 65.3066 20.1058C64.9298 20.9761 64.4095 21.7376 63.7456 22.3903C63.0817 23.043 62.2922 23.5597 61.3771 23.9404C60.48 24.3212 59.5021 24.5115 58.4435 24.5115C57.3849 24.5115 56.398 24.3302 55.4829 23.9676C54.5858 23.5869 53.8053 23.0702 53.1414 22.4175C52.4775 21.7648 51.9572 20.9942 51.5804 20.1058C51.2215 19.2174 51.0421 18.2655 51.0421 17.2502C51.0421 16.2349 51.2305 15.283 51.6073 14.3946C51.9841 13.5062 52.4954 12.7357 53.1414 12.083C53.8053 11.4303 54.5858 10.9136 55.4829 10.5328C56.398 10.1521 57.3849 9.9617 58.4435 9.9617ZM58.4435 13.3884C57.9231 13.3884 57.4297 13.4881 56.9632 13.6876C56.5146 13.8689 56.1199 14.1318 55.779 14.4762C55.456 14.8207 55.1958 15.2287 54.9985 15.7001C54.819 16.1714 54.7293 16.6882 54.7293 17.2502C54.7293 17.8123 54.819 18.329 54.9985 18.8004C55.1779 19.2718 55.4291 19.6797 55.7521 20.0242C56.075 20.3687 56.4608 20.6407 56.9094 20.8401C57.3579 21.0395 57.8424 21.1392 58.3627 21.1392C58.8831 21.1392 59.3765 21.0395 59.843 20.8401C60.3095 20.6407 60.7132 20.3687 61.0542 20.0242C61.3951 19.6797 61.6642 19.2718 61.8616 18.8004C62.059 18.329 62.1576 17.8123 62.1576 17.2502C62.1576 16.6882 62.059 16.1714 61.8616 15.7001C61.6822 15.2287 61.422 14.8207 61.0811 14.4762C60.7581 14.1318 60.3634 13.8689 59.8968 13.6876C59.4483 13.4881 58.9638 13.3884 58.4435 13.3884Z" fill="white"/>
<path d="M67.0806 9.03704V5.55595H70.8217V9.03704H67.0806ZM67.0806 24.1852V10.2337H70.8217V24.1852H67.0806Z" fill="white"/>
<path d="M72.3373 24.1852V5.55595H76.1053V24.1852H72.3373Z" fill="white"/>
<path d="M77.6203 24.1852V20.2418H81.4959V24.1852H77.6203Z" fill="white"/>
<path d="M87.4216 12.3821V24.1852H83.4114V5.55595H87.9599L95.3882 17.3862V5.55595H99.3985V24.1852H94.85L87.4216 12.3821Z" fill="white"/>
<path d="M114.84 21.1936C114.158 22.2271 113.279 23.043 112.202 23.6413C111.144 24.2215 109.843 24.5115 108.3 24.5115C107.187 24.5115 106.183 24.3302 105.286 23.9676C104.406 23.5869 103.644 23.0792 102.998 22.4447C102.37 21.792 101.885 21.0214 101.544 20.133C101.204 19.2446 101.033 18.2837 101.033 17.2502C101.033 16.253 101.204 15.3102 101.544 14.4218C101.903 13.5334 102.406 12.7629 103.052 12.1102C103.698 11.4394 104.469 10.9136 105.366 10.5328C106.263 10.1521 107.25 9.9617 108.327 9.9617C109.421 9.9617 110.399 10.143 111.26 10.5056C112.122 10.8682 112.848 11.3668 113.441 12.0014C114.051 12.636 114.517 13.3884 114.84 14.2587C115.163 15.1108 115.325 16.0445 115.325 17.0599C115.325 17.3318 115.316 17.6128 115.298 17.9029C115.28 18.193 115.271 18.3562 115.271 18.3925H104.72C104.918 19.2809 105.33 19.988 105.958 20.5137C106.604 21.0395 107.412 21.3024 108.381 21.3024C109.224 21.3024 109.942 21.1392 110.534 20.8129C111.144 20.4684 111.646 20.0151 112.041 19.4531L114.84 21.1936ZM108.3 13.062C107.421 13.062 106.685 13.2887 106.093 13.7419C105.519 14.1771 105.106 14.7935 104.855 15.5913H111.557C111.359 14.7391 110.955 14.1046 110.345 13.6876C109.735 13.2705 109.054 13.062 108.3 13.062Z" fill="white"/>
<path d="M124.797 10.2337V13.606H121.406V19.2083C121.406 19.8429 121.55 20.2962 121.837 20.5681C122.142 20.822 122.608 20.9489 123.236 20.9489H124.797V24.1852H122.967C121.119 24.1852 119.773 23.7863 118.93 22.9886C118.087 22.1727 117.665 20.9761 117.665 19.3987V13.606H115.674V10.2337H117.665V6.64379H121.406V10.2337H124.797Z" fill="white"/>
<path d="M135.854 16.2168L133.97 24.1852H129.233L125.708 10.2337H129.475L131.736 19.8338L134.078 10.2337H137.846L140.16 19.8882L142.448 10.2337H146.082L142.529 24.1852H137.738L135.854 16.2168Z" fill="white"/>
<path d="M153.458 9.9617C154.517 9.9617 155.494 10.1521 156.392 10.5328C157.307 10.9136 158.096 11.4303 158.76 12.083C159.424 12.7357 159.944 13.5062 160.321 14.3946C160.698 15.283 160.886 16.2349 160.886 17.2502C160.886 18.2655 160.698 19.2174 160.321 20.1058C159.944 20.9761 159.424 21.7376 158.76 22.3903C158.096 23.043 157.307 23.5597 156.392 23.9404C155.494 24.3212 154.517 24.5115 153.458 24.5115C152.399 24.5115 151.412 24.3302 150.497 23.9676C149.6 23.5869 148.82 23.0702 148.156 22.4175C147.492 21.7648 146.972 20.9942 146.595 20.1058C146.236 19.2174 146.057 18.2655 146.057 17.2502C146.057 16.2349 146.245 15.283 146.622 14.3946C146.999 13.5062 147.51 12.7357 148.156 12.083C148.82 11.4303 149.6 10.9136 150.497 10.5328C151.412 10.1521 152.399 9.9617 153.458 9.9617ZM153.458 13.3884C152.938 13.3884 152.444 13.4881 151.978 13.6876C151.529 13.8689 151.134 14.1318 150.793 14.4762C150.47 14.8207 150.21 15.2287 150.013 15.7001C149.833 16.1714 149.744 16.6882 149.744 17.2502C149.744 17.8123 149.833 18.329 150.013 18.8004C150.192 19.2718 150.444 19.6797 150.766 20.0242C151.089 20.3687 151.475 20.6407 151.924 20.8401C152.372 21.0395 152.857 21.1392 153.377 21.1392C153.898 21.1392 154.391 21.0395 154.857 20.8401C155.324 20.6407 155.728 20.3687 156.069 20.0242C156.41 19.6797 156.679 19.2718 156.876 18.8004C157.073 18.329 157.172 17.8123 157.172 17.2502C157.172 16.6882 157.073 16.1714 156.876 15.7001C156.697 15.2287 156.436 14.8207 156.096 14.4762C155.773 14.1318 155.378 13.8689 154.911 13.6876C154.463 13.4881 153.978 13.3884 153.458 13.3884Z" fill="white"/>
<path d="M162.095 24.1852V10.2337H165.836V12.1374C166.303 11.5028 166.868 10.9952 167.532 10.6144C168.214 10.2337 168.985 10.0433 169.846 10.0433V13.8507C168.465 13.8507 167.451 14.2133 166.805 14.9386C166.177 15.6457 165.863 16.6066 165.863 17.8213V24.1852H162.095Z" fill="white"/>
<path d="M179.533 10.2337H183.785L178.483 17.1686L184 24.1852H179.344L174.957 18.4468V24.1852H171.189V5.55595H174.957V16.4887L179.533 10.2337Z" fill="white"/>
</svg>
